<?xml version="1.0" encoding="UTF-8" standalone="no"?>
<svg height="72" viewBox="0 0 100 94">
  <path class="ax-logo-svg" d="M 22.75,1.2421875 1.015625,92.998047 h 78.027344 v -4.642578 c 0,-13.755493 -2.357745,-27.339789 -8.279297,-38.63086 C 64.84212,38.433539 55.06219,29.48571 41.261719,26.054687 l -4.603516,-1.144531 -10.964844,49.34375 h 18.894532 v -9.298828 h -7.355469 c 0,0 2.405675,-10.991725 6.296875,-28.228516 8.632259,3.343068 14.77298,9.256428 19,17.316407 4.337962,8.27152 6.502787,18.694585 7,29.662109 -25.727465,0.02885 -51.627864,0.006 -56.855469,0 1.7625,-7.757285 9.607581,-42.043773 17.314453,-72.951172 33.880109,2.173873 59.998047,34.516188 59.998047,77.601563 v 4.65039 h 9.300781 v -4.65039 C 99.287109,39.782395 67.780177,1.2421875 26.375,1.2421875 Z M 47.160156,64.955078 v 9.298828 h 9.5625 v -9.298828 z"/>
</svg>
